HIERARCHY
ROOT joint_Root
{
	OFFSET 0.0 0.0 0.0
	CHANNELS 6 Xposition Yposition Zposition Zrotation Xrotation Yrotation 
	JOINT Hips
	{
		OFFSET -0.726466 93.3139 -2.00062
		CHANNELS 6 Xposition Yposition Zposition Zrotation Xrotation Yrotation 
		JOINT Spine
		{
			OFFSET 15.7357 0.0 0.0
			CHANNELS 6 Xposition Yposition Zposition Zrotation Xrotation Yrotation 
			JOINT Chest
			{
				OFFSET 8.98455 -0.406207 0.0
				CHANNELS 6 Xposition Yposition Zposition Zrotation Xrotation Yrotation 
				JOINT Neck
				{
					OFFSET 16.3773 0.0 0.0
					CHANNELS 6 Xposition Yposition Zposition Zrotation Xrotation Yrotation 
					JOINT Head
					{
						OFFSET 6.45672 0.0 0.0
						CHANNELS 6 Xposition Yposition Zposition Zrotation Xrotation Yrotation 
						End Site
						{
							OFFSET 0.0 0.0 0.0
						}
					}
				}
				JOINT Shoulder_L
				{
					OFFSET 12.9942 -0.242716 4.98039
					CHANNELS 6 Xposition Yposition Zposition Zrotation Xrotation Yrotation 
					JOINT UpperArm_L
					{
						OFFSET 5.34809 0.0 0.0
						CHANNELS 6 Xposition Yposition Zposition Zrotation Xrotation Yrotation 
						JOINT LowerArm_L
						{
							OFFSET 24.3286 1.87007e-05 0.0
							CHANNELS 6 Xposition Yposition Zposition Zrotation Xrotation Yrotation 
							JOINT Hand_L
							{
								OFFSET 22.2916 0.0 0.0
								CHANNELS 6 Xposition Yposition Zposition Zrotation Xrotation Yrotation 
								End Site
								{
									OFFSET 0.0 0.0 0.0
								}
							}
						}
					}
				}
				JOINT Shoulder_R
				{
					OFFSET 12.9945 -0.242716 -4.98039
					CHANNELS 6 Xposition Yposition Zposition Zrotation Xrotation Yrotation 
					JOINT UpperArm_R
					{
						OFFSET -5.34813 0.0 0.0
						CHANNELS 6 Xposition Yposition Zposition Zrotation Xrotation Yrotation 
						JOINT LowerArm_R
						{
							OFFSET -24.3289 0.000322201 0.0
							CHANNELS 6 Xposition Yposition Zposition Zrotation Xrotation Yrotation 
							JOINT Hand_R
							{
								OFFSET -22.2915 -0.000108084 0.0
								CHANNELS 6 Xposition Yposition Zposition Zrotation Xrotation Yrotation 
								End Site
								{
									OFFSET 0.0 0.0 0.0
								}
							}
						}
					}
				}
			}
		}
		JOINT UpperLeg_L
		{
			OFFSET -2.19248 -6.46944 0.0
			CHANNELS 6 Xposition Yposition Zposition Zrotation Xrotation Yrotation 
			JOINT LowerLeg_L
			{
				OFFSET 39.0811 0.0 -1.23785e-05
				CHANNELS 6 Xposition Yposition Zposition Zrotation Xrotation Yrotation 
				JOINT Foot_L
				{
					OFFSET 40.9854 0.0 -1.26872e-05
					CHANNELS 6 Xposition Yposition Zposition Zrotation Xrotation Yrotation 
					JOINT Toes_L
					{
						OFFSET 11.7543 0.0 0.0
						CHANNELS 6 Xposition Yposition Zposition Zrotation Xrotation Yrotation 
						End Site
						{
							OFFSET 0.0 0.0 0.0
						}
					}
				}
			}
		}
		JOINT UpperLeg_R
		{
			OFFSET -2.19251 6.46944 0.0
			CHANNELS 6 Xposition Yposition Zposition Zrotation Xrotation Yrotation 
			JOINT LowerLeg_R
			{
				OFFSET -39.0811 -0.00228153 -0.0401928
				CHANNELS 6 Xposition Yposition Zposition Zrotation Xrotation Yrotation 
				JOINT Foot_R
				{
					OFFSET -40.9854 0.0 0.0
					CHANNELS 6 Xposition Yposition Zposition Zrotation Xrotation Yrotation 
					JOINT Toes_R
					{
						OFFSET -11.7543 0.0 0.0
						CHANNELS 6 Xposition Yposition Zposition Zrotation Xrotation Yrotation 
						End Site
						{
							OFFSET 0.0 0.0 0.0
						}
					}
				}
			}
		}
	}
}
MOTION
Frames:	4
Frame Time:	0.0333333
0.000000 0.000000 0.000000 0.000000 0.000000 -0.000000 -133.973000 88.753000 194.232000 76.138500 78.223300 16.774600 15.735700 0.000005 -0.000001 109.158000 82.677500 -108.331000 8.984550 -0.406207 -0.000000 6.050150 4.780650 1.399790 16.377300 -0.000001 -0.000001 1.192750 0.096634 0.578423 6.456720 -0.000001 -0.000000 1.908410 -2.567240 -0.465538 12.994200 -0.242716 4.980390 -88.809100 -2.967210 -68.120100 5.348090 -0.000007 -0.000001 -78.100600 14.882000 6.610950 24.328600 0.000019 0.000005 2.150580 13.413400 -9.195140 22.291600 -0.000001 0.000005 6.686940 5.315620 -0.370090 12.994500 -0.242716 -4.980390 88.979800 3.895870 -75.313800 -5.348130 -0.000001 -0.000004 -52.173400 30.616600 -42.085200 -24.328900 0.000322 -0.000009 1.547740 1.963700 -38.276700 -22.291500 -0.000108 -0.000004 13.227100 5.448390 -4.581830 -2.192480 -6.469440 -0.000000 -172.869000 -8.614180 -20.466500 39.081100 -0.000007 -0.000012 -0.000483 0.007022 3.926890 40.985400 -0.000006 -0.000013 1.169340 -0.337407 -57.582700 11.754300 -0.000000 0.000003 -0.005452 -0.065779 -19.253500 -2.192510 6.469440 -0.000001 176.782000 11.911800 -171.556000 -39.081100 -0.002282 -0.040193 0.008671 -0.011042 25.896000 -40.985400 0.000008 0.000006 5.880550 7.336520 -76.328500 -11.754300 -0.000006 -0.000006 -0.037830 -0.162163 -22.281100
0.000000 0.000000 0.000000 0.000000 0.000000 -0.000000 -129.597000 88.151600 193.546000 79.599100 77.810000 13.399900 15.735700 0.000005 -0.000001 110.001000 82.629400 -109.482000 8.984550 -0.406207 -0.000000 6.081660 5.020550 0.769236 16.377300 -0.000001 -0.000001 0.885566 0.272854 0.660512 6.456720 -0.000001 -0.000000 1.755770 -2.501340 0.026746 12.994200 -0.242716 4.980390 -88.856100 -2.853640 -68.145900 5.348090 -0.000007 -0.000001 -78.044500 13.456300 7.015780 24.328600 0.000019 0.000005 2.025800 14.144900 -8.235800 22.291600 -0.000001 0.000005 6.930260 5.295600 0.195198 12.994500 -0.242716 -4.980390 88.913200 4.280500 -75.740100 -5.348130 -0.000001 -0.000004 -52.992400 29.602200 -40.850700 -24.328900 0.000322 -0.000009 1.375130 1.779550 -37.727000 -22.291500 -0.000108 -0.000004 14.089800 5.458310 -4.939280 -2.192480 -6.469440 -0.000000 -173.523000 -9.820000 -24.891300 39.081100 -0.000007 -0.000012 0.023526 -0.102547 12.921500 40.985400 -0.000006 -0.000013 -2.865180 -1.933120 -56.777200 11.754300 -0.000000 0.000003 -0.005804 -0.069051 -19.386900 -2.192510 6.469440 -0.000001 174.582000 10.845000 -170.492000 -39.081100 -0.002282 -0.040193 -0.030410 0.062658 28.284000 -40.985400 0.000008 0.000006 5.502010 7.857510 -73.503700 -11.754300 -0.000006 -0.000006 -3.360350 -3.233060 -27.281700
0.000000 0.000000 0.000000 0.000000 0.000000 -0.000000 -124.719000 87.759700 192.633000 88.359600 77.821100 5.032440 15.735700 0.000005 -0.000001 109.922000 82.618400 -110.094000 8.984550 -0.406207 -0.000000 6.139380 5.019050 -0.612247 16.377300 -0.000001 -0.000001 1.002850 0.250882 0.852346 6.456720 -0.000001 -0.000000 1.411040 -2.497700 0.446020 12.994200 -0.242716 4.980390 -89.055400 -2.380300 -68.347000 5.348090 -0.000007 -0.000001 -77.881500 12.578300 6.796180 24.328600 0.000019 0.000005 1.944650 14.493200 -7.725930 22.291600 -0.000001 0.000005 7.060100 5.277200 0.702761 12.994500 -0.242716 -4.980390 88.775700 4.874060 -75.881500 -5.348130 -0.000001 -0.000004 -54.179900 28.995100 -38.622300 -24.328900 0.000322 -0.000009 1.362400 1.879620 -35.967800 -22.291500 -0.000108 -0.000004 14.650400 5.458300 -4.939080 -2.192480 -6.469440 -0.000000 -175.993000 -9.144740 -28.150000 39.081100 -0.000007 -0.000012 0.056097 -0.137099 22.252800 40.985400 -0.000006 -0.000013 -1.724140 -4.164090 -49.861200 11.754300 -0.000000 0.000003 -0.007528 -0.084143 -20.002700 -2.192510 6.469440 -0.000001 170.868000 9.742570 -169.150000 -39.081100 -0.002282 -0.040193 -0.011546 0.024470 31.244400 -40.985400 0.000008 0.000006 5.051220 8.193740 -71.422900 -11.754300 -0.000006 -0.000006 -0.060041 -0.331907 -30.280100
0.000000 0.000000 0.000000 0.000000 0.000000 -0.000000 -119.502000 87.632300 191.722000 95.853600 77.490000 -1.751650 15.735700 0.000005 -0.000001 109.801000 82.642500 -110.617000 8.984550 -0.406207 -0.000000 6.132970 4.982590 -1.899230 16.377300 -0.000001 -0.000001 1.159190 0.319643 1.143080 6.456720 -0.000001 -0.000000 1.366870 -2.666430 0.887373 12.994200 -0.242716 4.980390 -89.281400 -1.799690 -68.229900 5.348090 -0.000007 -0.000001 -77.589900 12.888500 6.061850 24.328600 0.000019 0.000005 1.952060 14.304000 -7.854240 22.291600 -0.000001 0.000005 6.553630 5.278410 0.669528 12.994500 -0.242716 -4.980390 88.596800 5.664450 -76.062100 -5.348130 -0.000001 -0.000004 -56.000700 28.764300 -35.045400 -24.328900 0.000322 -0.000009 1.469910 2.231240 -33.409200 -22.291500 -0.000108 -0.000004 14.441800 5.452450 -4.727200 -2.192480 -6.469440 -0.000000 -178.725000 -10.852100 -27.964500 39.081100 -0.000007 -0.000012 0.019823 -0.038597 27.184700 40.985400 -0.000006 -0.000013 -0.809261 -1.307010 -45.953000 11.754300 -0.000000 0.000003 -0.005323 -0.064567 -19.204100 -2.192510 6.469440 -0.000001 168.241000 7.685220 -168.766000 -39.081100 -0.002282 -0.040193 0.052597 -0.068728 35.656700 -40.985400 0.000008 0.000006 6.055260 6.693050 -66.165900 -11.754300 -0.000006 -0.000006 -0.134015 -0.522146 -38.562400
